<mxfile host="65bd71144e">
    <diagram id="zVDE9YTUxeGrIHKXPhJS" name="Page-1">
        <mxGraphModel dx="880" dy="638" grid="1" gridSize="10" guides="1" tooltips="1" connect="1" arrows="1" fold="1" page="1" pageScale="1" pageWidth="850" pageHeight="1100" math="0" shadow="0">
            <root>
                <mxCell id="0"/>
                <mxCell id="1" parent="0"/>
                <mxCell id="13" style="edgeStyle=none;html=1;exitX=0;exitY=0;exitDx=0;exitDy=0;entryX=0;entryY=0;entryDx=0;entryDy=0;" parent="1" source="2" target="2" edge="1">
                    <mxGeometry relative="1" as="geometry">
                        <mxPoint x="329.66666666666674" y="120.44444444444446" as="targetPoint"/>
                    </mxGeometry>
                </mxCell>
                <mxCell id="2" value="Cat" style="swimlane;fontStyle=0;childLayout=stackLayout;horizontal=1;startSize=26;fillColor=none;horizontalStack=0;resizeParent=1;resizeParentMax=0;resizeLast=0;collapsible=1;marginBottom=0;" parent="1" vertex="1">
                    <mxGeometry x="330" y="120" width="270" height="472" as="geometry"/>
                </mxCell>
                <mxCell id="3" value="- firstName: String" style="text;strokeColor=none;fillColor=none;align=left;verticalAlign=top;spacingLeft=4;spacingRight=4;overflow=hidden;rotatable=0;points=[[0,0.5],[1,0.5]];portConstraint=eastwest;" parent="2" vertex="1">
                    <mxGeometry y="26" width="270" height="26" as="geometry"/>
                </mxCell>
                <mxCell id="4" value="- furColor: String" style="text;strokeColor=none;fillColor=none;align=left;verticalAlign=top;spacingLeft=4;spacingRight=4;overflow=hidden;rotatable=0;points=[[0,0.5],[1,0.5]];portConstraint=eastwest;" parent="2" vertex="1">
                    <mxGeometry y="52" width="270" height="26" as="geometry"/>
                </mxCell>
                <mxCell id="5" value="- age: int" style="text;strokeColor=none;fillColor=none;align=left;verticalAlign=top;spacingLeft=4;spacingRight=4;overflow=hidden;rotatable=0;points=[[0,0.5],[1,0.5]];portConstraint=eastwest;" parent="2" vertex="1">
                    <mxGeometry y="78" width="270" height="26" as="geometry"/>
                </mxCell>
                <mxCell id="12" value="+ Cat(String, String, int): type" style="text;strokeColor=none;fillColor=none;align=left;verticalAlign=top;spacingLeft=4;spacingRight=4;overflow=hidden;rotatable=0;points=[[0,0.5],[1,0.5]];portConstraint=eastwest;" parent="2" vertex="1">
                    <mxGeometry y="104" width="270" height="46" as="geometry"/>
                </mxCell>
                <mxCell id="15" value="+ getFirstName(): String" style="text;strokeColor=none;fillColor=none;align=left;verticalAlign=top;spacingLeft=4;spacingRight=4;overflow=hidden;rotatable=0;points=[[0,0.5],[1,0.5]];portConstraint=eastwest;" parent="2" vertex="1">
                    <mxGeometry y="150" width="270" height="46" as="geometry"/>
                </mxCell>
                <mxCell id="16" value="- getPermission(): boolean" style="text;strokeColor=none;fillColor=none;align=left;verticalAlign=top;spacingLeft=4;spacingRight=4;overflow=hidden;rotatable=0;points=[[0,0.5],[1,0.5]];portConstraint=eastwest;" parent="2" vertex="1">
                    <mxGeometry y="196" width="270" height="46" as="geometry"/>
                </mxCell>
                <mxCell id="24" value="+ getFurColor(): string" style="text;strokeColor=none;fillColor=none;align=left;verticalAlign=top;spacingLeft=4;spacingRight=4;overflow=hidden;rotatable=0;points=[[0,0.5],[1,0.5]];portConstraint=eastwest;" parent="2" vertex="1">
                    <mxGeometry y="242" width="270" height="46" as="geometry"/>
                </mxCell>
                <mxCell id="25" value="+ getAge(): int" style="text;strokeColor=none;fillColor=none;align=left;verticalAlign=top;spacingLeft=4;spacingRight=4;overflow=hidden;rotatable=0;points=[[0,0.5],[1,0.5]];portConstraint=eastwest;" parent="2" vertex="1">
                    <mxGeometry y="288" width="270" height="46" as="geometry"/>
                </mxCell>
                <mxCell id="26" value="+ setAge(): void" style="text;strokeColor=none;fillColor=none;align=left;verticalAlign=top;spacingLeft=4;spacingRight=4;overflow=hidden;rotatable=0;points=[[0,0.5],[1,0.5]];portConstraint=eastwest;" parent="2" vertex="1">
                    <mxGeometry y="334" width="270" height="46" as="geometry"/>
                </mxCell>
                <mxCell id="37" value="+ getInstanceVariable(): Cat" style="text;strokeColor=none;fillColor=none;align=left;verticalAlign=top;spacingLeft=4;spacingRight=4;overflow=hidden;rotatable=0;points=[[0,0.5],[1,0.5]];portConstraint=eastwest;" parent="2" vertex="1">
                    <mxGeometry y="380" width="270" height="46" as="geometry"/>
                </mxCell>
                <mxCell id="38" value="+ method(type): type" style="text;strokeColor=none;fillColor=none;align=left;verticalAlign=top;spacingLeft=4;spacingRight=4;overflow=hidden;rotatable=0;points=[[0,0.5],[1,0.5]];portConstraint=eastwest;" parent="2" vertex="1">
                    <mxGeometry y="426" width="270" height="46" as="geometry"/>
                </mxCell>
            </root>
        </mxGraphModel>
    </diagram>
    <diagram name="App - Cat" id="LMieWU_iHD1oEPlIiL8i">
        <mxGraphModel dx="760" dy="369" grid="1" gridSize="10" guides="1" tooltips="1" connect="1" arrows="1" fold="1" page="1" pageScale="1" pageWidth="850" pageHeight="1100" math="0" shadow="0">
            <root>
                <mxCell id="clskB_8r0MkhXcM2876--0"/>
                <mxCell id="clskB_8r0MkhXcM2876--1" parent="clskB_8r0MkhXcM2876--0"/>
                <mxCell id="clskB_8r0MkhXcM2876--2" style="edgeStyle=none;html=1;exitX=0;exitY=0;exitDx=0;exitDy=0;entryX=0;entryY=0;entryDx=0;entryDy=0;" edge="1" parent="clskB_8r0MkhXcM2876--1" source="clskB_8r0MkhXcM2876--3" target="clskB_8r0MkhXcM2876--3">
                    <mxGeometry relative="1" as="geometry">
                        <mxPoint x="329.66666666666674" y="120.44444444444446" as="targetPoint"/>
                    </mxGeometry>
                </mxCell>
                <mxCell id="clskB_8r0MkhXcM2876--3" value="Cat" style="swimlane;fontStyle=0;childLayout=stackLayout;horizontal=1;startSize=26;fillColor=none;horizontalStack=0;resizeParent=1;resizeParentMax=0;resizeLast=0;collapsible=1;marginBottom=0;" vertex="1" parent="clskB_8r0MkhXcM2876--1">
                    <mxGeometry x="430" y="120" width="260" height="426" as="geometry"/>
                </mxCell>
                <mxCell id="clskB_8r0MkhXcM2876--4" value="- firstName: String" style="text;strokeColor=none;fillColor=none;align=left;verticalAlign=top;spacingLeft=4;spacingRight=4;overflow=hidden;rotatable=0;points=[[0,0.5],[1,0.5]];portConstraint=eastwest;" vertex="1" parent="clskB_8r0MkhXcM2876--3">
                    <mxGeometry y="26" width="260" height="26" as="geometry"/>
                </mxCell>
                <mxCell id="clskB_8r0MkhXcM2876--5" value="- furColor: String" style="text;strokeColor=none;fillColor=none;align=left;verticalAlign=top;spacingLeft=4;spacingRight=4;overflow=hidden;rotatable=0;points=[[0,0.5],[1,0.5]];portConstraint=eastwest;" vertex="1" parent="clskB_8r0MkhXcM2876--3">
                    <mxGeometry y="52" width="260" height="26" as="geometry"/>
                </mxCell>
                <mxCell id="clskB_8r0MkhXcM2876--6" value="- age: int" style="text;strokeColor=none;fillColor=none;align=left;verticalAlign=top;spacingLeft=4;spacingRight=4;overflow=hidden;rotatable=0;points=[[0,0.5],[1,0.5]];portConstraint=eastwest;" vertex="1" parent="clskB_8r0MkhXcM2876--3">
                    <mxGeometry y="78" width="260" height="26" as="geometry"/>
                </mxCell>
                <mxCell id="r6m2OeGCbLFAu4CUrzfa-10" value="+ Cat(String, String, int): type" style="text;strokeColor=none;fillColor=none;align=left;verticalAlign=top;spacingLeft=4;spacingRight=4;overflow=hidden;rotatable=0;points=[[0,0.5],[1,0.5]];portConstraint=eastwest;" vertex="1" parent="clskB_8r0MkhXcM2876--3">
                    <mxGeometry y="104" width="260" height="46" as="geometry"/>
                </mxCell>
                <mxCell id="clskB_8r0MkhXcM2876--8" value="+ getFirstName(): String" style="text;strokeColor=none;fillColor=none;align=left;verticalAlign=top;spacingLeft=4;spacingRight=4;overflow=hidden;rotatable=0;points=[[0,0.5],[1,0.5]];portConstraint=eastwest;" vertex="1" parent="clskB_8r0MkhXcM2876--3">
                    <mxGeometry y="150" width="260" height="46" as="geometry"/>
                </mxCell>
                <mxCell id="clskB_8r0MkhXcM2876--9" value="- getPermission(): boolean" style="text;strokeColor=none;fillColor=none;align=left;verticalAlign=top;spacingLeft=4;spacingRight=4;overflow=hidden;rotatable=0;points=[[0,0.5],[1,0.5]];portConstraint=eastwest;" vertex="1" parent="clskB_8r0MkhXcM2876--3">
                    <mxGeometry y="196" width="260" height="46" as="geometry"/>
                </mxCell>
                <mxCell id="clskB_8r0MkhXcM2876--10" value="+ getFurColor(): string" style="text;strokeColor=none;fillColor=none;align=left;verticalAlign=top;spacingLeft=4;spacingRight=4;overflow=hidden;rotatable=0;points=[[0,0.5],[1,0.5]];portConstraint=eastwest;" vertex="1" parent="clskB_8r0MkhXcM2876--3">
                    <mxGeometry y="242" width="260" height="46" as="geometry"/>
                </mxCell>
                <mxCell id="clskB_8r0MkhXcM2876--11" value="+ getAge(): int" style="text;strokeColor=none;fillColor=none;align=left;verticalAlign=top;spacingLeft=4;spacingRight=4;overflow=hidden;rotatable=0;points=[[0,0.5],[1,0.5]];portConstraint=eastwest;" vertex="1" parent="clskB_8r0MkhXcM2876--3">
                    <mxGeometry y="288" width="260" height="46" as="geometry"/>
                </mxCell>
                <mxCell id="clskB_8r0MkhXcM2876--12" value="+ setAge(): void" style="text;strokeColor=none;fillColor=none;align=left;verticalAlign=top;spacingLeft=4;spacingRight=4;overflow=hidden;rotatable=0;points=[[0,0.5],[1,0.5]];portConstraint=eastwest;" vertex="1" parent="clskB_8r0MkhXcM2876--3">
                    <mxGeometry y="334" width="260" height="46" as="geometry"/>
                </mxCell>
                <mxCell id="clskB_8r0MkhXcM2876--13" value="+ getInstanceVariable(): Cat" style="text;strokeColor=none;fillColor=none;align=left;verticalAlign=top;spacingLeft=4;spacingRight=4;overflow=hidden;rotatable=0;points=[[0,0.5],[1,0.5]];portConstraint=eastwest;" vertex="1" parent="clskB_8r0MkhXcM2876--3">
                    <mxGeometry y="380" width="260" height="46" as="geometry"/>
                </mxCell>
                <mxCell id="r6m2OeGCbLFAu4CUrzfa-0" value="App" style="swimlane;fontStyle=1;align=center;verticalAlign=top;childLayout=stackLayout;horizontal=1;startSize=26;horizontalStack=0;resizeParent=1;resizeParentMax=0;resizeLast=0;collapsible=1;marginBottom=0;" vertex="1" parent="clskB_8r0MkhXcM2876--1">
                    <mxGeometry x="70" y="120" width="160" height="86" as="geometry"/>
                </mxCell>
                <mxCell id="r6m2OeGCbLFAu4CUrzfa-2" value="" style="line;strokeWidth=1;fillColor=none;align=left;verticalAlign=middle;spacingTop=-1;spacingLeft=3;spacingRight=3;rotatable=0;labelPosition=right;points=[];portConstraint=eastwest;strokeColor=inherit;" vertex="1" parent="r6m2OeGCbLFAu4CUrzfa-0">
                    <mxGeometry y="26" width="160" height="8" as="geometry"/>
                </mxCell>
                <mxCell id="r6m2OeGCbLFAu4CUrzfa-3" value="+ main(String[]): void" style="text;strokeColor=none;fillColor=none;align=left;verticalAlign=top;spacingLeft=4;spacingRight=4;overflow=hidden;rotatable=0;points=[[0,0.5],[1,0.5]];portConstraint=eastwest;" vertex="1" parent="r6m2OeGCbLFAu4CUrzfa-0">
                    <mxGeometry y="34" width="160" height="26" as="geometry"/>
                </mxCell>
                <mxCell id="r6m2OeGCbLFAu4CUrzfa-4" value="+ output(String):Void " style="text;strokeColor=none;fillColor=none;align=left;verticalAlign=top;spacingLeft=4;spacingRight=4;overflow=hidden;rotatable=0;points=[[0,0.5],[1,0.5]];portConstraint=eastwest;" vertex="1" parent="r6m2OeGCbLFAu4CUrzfa-0">
                    <mxGeometry y="60" width="160" height="26" as="geometry"/>
                </mxCell>
                <mxCell id="r6m2OeGCbLFAu4CUrzfa-9" value="" style="endArrow=open;endFill=1;endSize=12;html=1;exitX=1;exitY=0.5;exitDx=0;exitDy=0;" edge="1" parent="clskB_8r0MkhXcM2876--1" source="r6m2OeGCbLFAu4CUrzfa-3">
                    <mxGeometry width="160" relative="1" as="geometry">
                        <mxPoint x="260" y="170" as="sourcePoint"/>
                        <mxPoint x="430" y="167" as="targetPoint"/>
                    </mxGeometry>
                </mxCell>
            </root>
        </mxGraphModel>
    </diagram>
</mxfile>